<?xml version="1.0" encoding="UTF-8" standalone="no"?>
<!-- Created with Inkscape (http://www.inkscape.org/) -->

<svg
   width="512"
   height="512"
   viewBox="0 0 512 512"
   version="1.1"
   id="svg1"
   xmlns="http://www.w3.org/2000/svg"
   xmlns:svg="http://www.w3.org/2000/svg">
  <defs
     id="defs1" />
  <path
     d="M 256,6 C 117.92881,6 6,117.92881 6,256 c 2.386e-4,50.15583 15.086718,99.15201 43.298828,140.62109 41.230306,-1.69394 89.367522,-0.95916 132.191392,-1.61332 49.64586,-0.86341 61.19063,-78.27851 105.29297,-79.00195 44.10234,-0.72344 52.70618,43.05409 77.57422,42.74023 24.86804,-0.31385 43.99103,-81.31544 85.34375,-81.1914 32.47264,0.0974 41.60894,24.9281 50.59766,31.52929 C 504.08859,291.64352 505.99988,273.84742 506,256 506,117.92881 394.07119,6 256,6 Z"
     style="display:inline;fill:#ffffff;fill-opacity:1;stroke:none;stroke-width:10;stroke-opacity:1"
     id="path4" />
  <g
     id="layer2"
     style="display:inline">
    <g
       id="g6"
       style="display:inline;stroke-width:0.997996"
       transform="matrix(1.003953,0,0,1.0000668,-0.43878061,-0.00741238)">
      <path
         id="path7"
         style="display:inline;fill:#fca311;fill-opacity:1;stroke:#fca311;stroke-width:11.0752;stroke-dasharray:none;stroke-opacity:1"
         d="m 255.41911,76.749058 c -79.45871,0 -143.87258,57.881782 -143.87258,129.282592 2e-5,1.02376 0.0135,2.04748 0.0406,3.07094 h -0.0406 V 435.25094 H 399.29197 V 209.10259 h -0.0406 c 0.0271,-1.02346 0.0406,-2.04718 0.0406,-3.07094 0,-71.40081 -64.41415,-129.282592 -143.87286,-129.282592 z" />
      <g
         id="g10"
         transform="matrix(1.8254974,0,0,1.8255054,-188.7157,-118.86213)"
         style="stroke-width:0.997998">
        <path
           style="fill:#ffffff;fill-opacity:1;stroke:#ffffff;stroke-width:21.7721;stroke-linecap:butt;stroke-linejoin:round;stroke-dasharray:none;stroke-opacity:1"
           id="path9"
           d="m 234.2579,167.5841 -24.47304,0.26544 -12.46639,-21.06155 12.00664,-21.32699 24.47304,-0.26544 12.46639,21.06156 z"
           transform="matrix(0.45272872,0.00708678,-0.00686123,0.46399802,143.8947,104.1014)" />
        <path
           style="display:inline;fill:#ffffff;fill-opacity:1;stroke:#ffffff;stroke-width:21.7721;stroke-linecap:butt;stroke-linejoin:round;stroke-dasharray:none;stroke-opacity:1"
           id="path9-3"
           d="m 234.2579,167.5841 -24.47304,0.26544 -12.46639,-21.06155 12.00664,-21.32699 24.47304,-0.26544 12.46639,21.06156 z"
           transform="matrix(0.45272872,0.00708678,-0.00686123,0.46399802,143.89463,71.603575)" />
        <path
           style="display:inline;fill:#ffffff;fill-opacity:1;stroke:#ffffff;stroke-width:21.7721;stroke-linecap:butt;stroke-linejoin:round;stroke-dasharray:none;stroke-opacity:1"
           id="path9-1"
           d="m 234.2579,167.5841 -24.47304,0.26544 -12.46639,-21.06155 12.00664,-21.32699 24.47304,-0.26544 12.46639,21.06156 z"
           transform="matrix(0.45272872,0.00708678,-0.00686123,0.46399802,143.89463,136.59923)" />
        <path
           style="display:inline;fill:#ffffff;fill-opacity:1;stroke:#ffffff;stroke-width:21.7721;stroke-linecap:butt;stroke-linejoin:round;stroke-dasharray:none;stroke-opacity:1"
           id="path9-0-6"
           d="m 234.2579,167.5841 -24.47304,0.26544 -12.46639,-21.06155 12.00664,-21.32699 24.47304,-0.26544 12.46639,21.06156 z"
           transform="matrix(0.45272872,0.00708678,-0.00686123,0.46399802,116.25389,87.85249)" />
        <path
           style="display:inline;fill:#ffffff;fill-opacity:1;stroke:#ffffff;stroke-width:21.7721;stroke-linecap:butt;stroke-linejoin:round;stroke-dasharray:none;stroke-opacity:1"
           id="path9-0-5-1"
           d="m 234.2579,167.5841 -24.47304,0.26544 -12.46639,-21.06155 12.00664,-21.32699 24.47304,-0.26544 12.46639,21.06156 z"
           transform="matrix(0.45272872,0.00708678,-0.00686123,0.46399802,116.25389,120.35032)" />
        <path
           style="display:inline;fill:#ffffff;fill-opacity:1;stroke:#ffffff;stroke-width:21.7721;stroke-linecap:butt;stroke-linejoin:round;stroke-dasharray:none;stroke-opacity:1"
           id="path9-0-6-4"
           d="m 234.2579,167.5841 -24.47304,0.26544 -12.46639,-21.06155 12.00664,-21.32699 24.47304,-0.26544 12.46639,21.06156 z"
           transform="matrix(0.45272872,0.00708678,-0.00686123,0.46399802,171.53536,87.85249)" />
        <path
           style="display:inline;fill:#ffffff;fill-opacity:1;stroke:#ffffff;stroke-width:21.7721;stroke-linecap:butt;stroke-linejoin:round;stroke-dasharray:none;stroke-opacity:1"
           id="path9-0-5-1-4"
           d="m 234.2579,167.5841 -24.47304,0.26544 -12.46639,-21.06155 12.00664,-21.32699 24.47304,-0.26544 12.46639,21.06156 z"
           transform="matrix(0.45272872,0.00708678,-0.00686123,0.46399802,171.53536,120.35032)" />
      </g>
    </g>
    <path
       style="display:inline;fill:#fca311;fill-opacity:1;stroke:#fca311;stroke-width:10;stroke-opacity:1"
       d="M 42.254131,374.28667 H 194.75732 v 20.93761 l -136.533654,1.5263 z"
       id="path1" />
  </g>
  <g
     id="layer1"
     style="display:inline;fill:none;fill-opacity:1;stroke:#fca311;stroke-opacity:1">
    <path
       d="m 500.29883,309.08398 c -8.98872,-6.60119 -18.12502,-31.43188 -50.59766,-31.52929 -41.35272,-0.12404 -60.47571,80.87755 -85.34375,81.1914 -24.86804,0.31386 -33.47188,-43.46367 -77.57422,-42.74023 -44.10234,0.72344 -55.64711,78.13854 -105.29297,79.00195 -49.64587,0.8634 24.01013,0.43393 -132.275386,0.86328 -0.0043,2e-5 -0.0099,8.2e-4 -0.01367,0.002 -0.07194,0.0303 -0.04495,0.28673 0.09766,0.74804 A 250,250 0 0 0 256,506 250,250 0 0 0 500.29883,309.08398 Z"
       style="display:inline;fill:#14213d;fill-opacity:1;stroke:none;stroke-width:10"
       id="path5" />
    <path
       d="m 497.76129,320.809 c -11.11248,9.58082 -21.96113,-28.62095 -44.32153,-28.5465 -29.93108,0.0996 -57.90596,105.12633 -88.99634,105.19907 -31.26265,0.0731 -33.2197,-69.8562 -76.42096,-69.17849 -43.20126,0.67771 -75.44777,122.8451 -130.33897,102.50048"
       style="display:inline;fill:none;fill-opacity:1;stroke:#fca311;stroke-width:10;stroke-opacity:1"
       id="path5-8" />
    <circle
       style="display:inline;fill:#fca311;fill-opacity:1;stroke:#fca311;stroke-width:10;stroke-dasharray:none;stroke-opacity:1"
       id="path6"
       cx="152.7303"
       cy="432.34869"
       r="17.5" />
    <g
       id="g3">
      <path
         d="m 500.29846,309.08443 c -8.98872,-6.60119 -18.12502,-31.43188 -50.59766,-31.52929 -41.35272,-0.12404 -60.47571,80.87755 -85.34375,81.1914 -24.86804,0.31386 -33.47188,-43.46367 -77.57422,-42.74023 -44.10234,0.72344 -55.64711,78.13854 -105.29297,79.00195 -49.64587,0.8634 24.01013,0.43393 -132.275405,0.86328 -0.004,2e-5 -0.01,8.2e-4 -0.0137,0.002 -0.0719,0.0303 -0.045,0.28673 0.0977,0.74804 A 250,250 0 0 0 255.99963,506.00045 250,250 0 0 0 500.29846,309.08443 Z"
         style="display:inline;fill:none;fill-opacity:1;stroke:#14213d;stroke-width:10;stroke-opacity:1"
         id="path5-2" />
      <path
         d="M 500.29882,309.08394 C 504.08859,291.64352 505.99988,273.84742 506,256 506,117.92881 394.07119,6 256,6 117.92881,6 6,117.92881 6,256 c 2.39e-4,50.15583 15.086718,99.15201 43.298828,140.62109"
         style="display:inline;fill:none;fill-opacity:1;stroke:#14213d;stroke-width:10;stroke-opacity:1"
         id="path4-8" />
    </g>
  </g>
</svg>
